<?xml version="1.0" standalone="no"?>
<!DOCTYPE svg PUBLIC "-//W3C//DTD SVG 20010904//EN"
 "http://www.w3.org/TR/2001/REC-SVG-20010904/DTD/svg10.dtd">
<svg version="1.0" xmlns="http://www.w3.org/2000/svg"
viewBox="111.412 120.438 197.307 126.464" width="196" height="126"
 preserveAspectRatio="xMidYMid meet">
  <rect x="111.412" y="120.438" width="197.307" height="126.464" style="fill: rgb(207, 207, 207); stroke: rgba(0, 0, 0, 0);" transform="matrix(1, 0, 0, 1, 7.105427357601002e-15, 0)"></rect>
  <g transform="matrix(0.016931001096963882, 0, 0, -0.016931001096963882, 172.54687500000003, 226.43191528320312)" fill="#000000" stroke="none" style="">
    <path d="M2310 5131 c-101 -33 -159 -70 -248 -159 -74 -74 -100 -110 -176
-242 -49 -85 -147 -256 -219 -380 -71 -124 -156 -270 -187 -325 -56 -99 -194
-338 -306 -530 -89 -153 -147 -253 -191 -330 -22 -38 -70 -122 -108 -185 -37
-63 -76 -131 -86 -151 -10 -20 -66 -116 -124 -213 -58 -98 -115 -196 -126
-217 -11 -22 -54 -97 -96 -167 -173 -288 -224 -454 -189 -619 39 -188 156
-316 356 -387 l85 -31 1710 -3 c1899 -3 1796 -6 1940 63 83 40 175 114 214
172 63 93 94 259 71 375 -26 133 -100 301 -190 429 -10 14 -37 62 -61 105 -42
80 -112 200 -179 309 -20 33 -46 78 -57 100 -10 22 -64 117 -119 210 -56 94
-121 206 -146 250 -25 44 -103 179 -173 300 -70 121 -179 310 -242 420 -63
110 -123 211 -133 225 -9 14 -46 77 -80 140 -35 63 -95 167 -133 230 -38 63
-85 144 -103 180 -81 153 -145 239 -237 318 -67 57 -156 105 -227 121 -68 16
-178 12 -240 -8z m208 -301 c66 -30 130 -103 210 -240 41 -69 77 -132 81 -140
5 -8 48 -82 96 -165 49 -82 111 -190 138 -240 27 -49 53 -95 57 -100 8 -10
157 -266 382 -658 65 -115 137 -238 160 -275 23 -37 46 -78 52 -92 6 -14 57
-102 113 -196 57 -94 106 -180 110 -190 4 -10 37 -68 73 -129 36 -60 85 -144
109 -185 24 -41 77 -133 119 -205 99 -170 125 -240 120 -322 -3 -43 -10 -72
-24 -90 -33 -45 -118 -90 -192 -103 -49 -8 -515 -10 -1722 -8 l-1655 3 -57 23
c-36 14 -71 39 -97 67 -40 44 -41 46 -41 119 0 92 20 150 94 273 29 48 89 151
133 228 44 77 115 201 158 275 43 74 102 176 130 225 29 50 77 132 106 182 30
51 74 128 98 170 25 43 72 125 106 183 34 58 82 141 107 185 25 44 102 177
170 295 68 118 162 280 208 360 45 80 117 204 160 275 42 72 102 175 133 230
66 120 101 165 161 211 78 59 129 68 204 34z" style="fill: rgb(255, 0, 0);"></path>
    <path d="M2314 3995 c-84 -42 -131 -117 -148 -237 -7 -43 3 -151 89 -964 14
-128 29 -243 34 -256 27 -73 105 -117 180 -103 91 17 124 63 140 196 42 332
112 1063 108 1121 -14 171 -114 267 -278 268 -60 0 -85 -5 -125 -25z" style="fill: rgb(255, 0, 0);"></path>
    <path d="M2323 2250 c-143 -82 -161 -270 -38 -378 48 -43 97 -62 159 -62 127
1 236 114 236 244 0 54 -39 135 -81 170 -49 42 -90 56 -161 56 -52 0 -72 -6
-115 -30z" style="fill: rgb(255, 0, 0);"></path>
    <path d="M1134 824 c-110 -39 -175 -147 -182 -300 -5 -108 12 -178 60 -249
100 -146 352 -155 445 -16 27 39 30 87 7 119 -25 36 -59 28 -112 -27 -55 -57
-98 -70 -159 -51 -50 17 -63 28 -84 75 -36 77 -41 75 155 75 213 0 218 2 224
103 8 125 -38 209 -143 258 -68 33 -142 37 -211 13z m156 -129 c49 -26 79
-106 44 -119 -23 -9 -232 -7 -238 2 -2 4 4 27 14 49 31 70 116 101 180 68z" style="fill: rgb(255, 0, 0);"></path>
    <path d="M1876 820 c-26 -10 -56 -26 -65 -34 -22 -20 -31 -20 -31 -2 0 21 -39
46 -71 46 -14 0 -34 -9 -45 -21 -18 -20 -19 -41 -21 -305 -1 -269 0 -285 19
-309 24 -31 77 -34 101 -7 14 16 17 44 17 188 0 156 2 173 23 214 12 24 39 58
60 74 36 29 45 31 124 32 93 0 113 11 113 61 0 71 -118 105 -224 63z" style="fill: rgb(255, 0, 0);"></path>
    <path d="M2460 824 c-25 -9 -56 -25 -69 -36 -24 -18 -25 -18 -34 -1 -24 46
-82 58 -117 23 -19 -19 -20 -33 -20 -310 0 -277 1 -291 20 -310 28 -28 84 -27
104 2 13 18 16 55 16 192 0 202 11 238 89 288 43 27 51 29 111 24 85 -7 113 9
108 61 -2 25 -11 42 -30 56 -36 27 -119 32 -178 11z" style="fill: rgb(255, 0, 0);"></path>
    <path d="M2923 818 c-97 -43 -148 -111 -173 -233 -13 -64 -8 -169 12 -226 6
-19 26 -57 44 -85 84 -133 314 -156 425 -42 61 63 90 134 96 231 14 226 -89
365 -277 374 -62 3 -84 0 -127 -19z m175 -137 c101 -51 123 -246 37 -336 -30
-32 -37 -35 -89 -35 -74 0 -109 19 -134 72 -58 122 -21 267 78 307 38 15 67
13 108 -8z" style="fill: rgb(255, 0, 0);"></path>
    <path d="M3697 825 c-21 -8 -51 -23 -66 -35 -34 -24 -41 -25 -41 -7 0 42 -83
63 -113 29 -15 -16 -17 -53 -17 -315 0 -255 2 -298 16 -311 23 -23 77 -20 100
5 17 19 20 42 24 203 6 202 11 223 77 273 33 25 44 28 118 28 55 0 87 5 98 14
19 15 22 53 6 83 -24 44 -125 61 -202 33z" style="fill: rgb(255, 0, 0);"></path>
  </g>
</svg>